<svg width="90" height="39" viewBox="0 0 90 39" fill="none" xmlns="http://www.w3.org/2000/svg">
<path d="M54.016 27H57.58V14.504H62.508V11.6H49.088V14.504H54.016V27ZM69.3782 27.264C73.7782 27.264 75.9122 25.064 75.9122 22.49C75.9122 16.836 66.9582 18.794 66.9582 15.956C66.9582 14.988 67.7722 14.196 69.8842 14.196C71.2482 14.196 72.7222 14.592 74.1522 15.406L75.2522 12.7C73.8222 11.798 71.8422 11.336 69.9062 11.336C65.5282 11.336 63.4162 13.514 63.4162 16.132C63.4162 21.852 72.3702 19.872 72.3702 22.754C72.3702 23.7 71.5122 24.404 69.4002 24.404C67.5522 24.404 65.6162 23.744 64.3182 22.798L63.1082 25.482C64.4722 26.538 66.9362 27.264 69.3782 27.264ZM81.3226 27H84.8866V14.504H89.8146V11.6H76.3946V14.504H81.3226V27Z" fill="#282C2E"/>
<g clip-path="url(#clip0)">
<path d="M18.9319 36.0388H9.00214V39H18.9319V36.0388Z" fill="#0056F8"/>
<path d="M14.0078 0L0 8.22075V24.9675L14.0078 33.193L28.0024 24.9675V8.22075L14.0078 0ZM25.2153 23.3048L14.0078 29.8967L2.77805 23.3048V9.88408L14.0078 3.29684L25.2153 9.88408V23.3048Z" fill="#0056F8"/>
<path d="M22.3797 12.8301V15.3338L19.5999 16.9024V24.2131L17.2044 25.5583V18.2517L13.982 20.0688L10.7698 18.2558V25.5127L8.37131 24.164V16.9024L5.62024 15.3508V12.847L7.71053 14.0249L13.9844 17.5622L20.4321 13.9279L22.3797 12.8301Z" fill="#0056F8"/>
<path d="M22.3215 10.9765L14.0042 15.66L12.2245 14.6576L18.6099 11.0619L17.0659 10.1951L10.6823 13.7896L5.67841 10.9701L13.9958 6.28711L15.8348 7.32289L9.39607 10.949L10.7332 11.7023L17.1726 8.07619L22.3215 10.9765Z" fill="#0056F8"/>
</g>
<defs>
<clipPath id="clip0">
<rect width="28" height="39" fill="white"/>
</clipPath>
</defs>
</svg>
