<svg width="114" height="15" viewBox="0 0 114 15" fill="none" xmlns="http://www.w3.org/2000/svg">
<path d="M5.13993 14.4312H8.99405V3.81975H13.1596V0.751619H0.954895V3.81975H5.13993V14.4312Z" fill="#48508A"/>
<path d="M19.3459 14.7048C23.3947 14.7048 25.3801 12.6724 25.3801 10.2882C25.3801 5.24634 17.6524 6.80972 17.6524 4.7187C17.6524 4.03472 18.2364 3.48754 19.852 3.48754C21.0394 3.48754 22.3241 3.8393 23.6283 4.54282L24.8157 1.67011C23.4725 0.888415 21.6428 0.478027 19.8715 0.478027C15.8227 0.478027 13.8372 2.47134 13.8372 4.91412C13.8372 9.99511 21.5844 8.41219 21.5844 10.5814C21.5844 11.2458 20.9615 11.6953 19.3654 11.6953C17.7887 11.6953 16.0758 11.1481 14.8689 10.3469L13.6037 13.2C14.8884 14.099 17.1074 14.7048 19.3459 14.7048Z" fill="#48508A"/>
<path d="M29.8707 14.4312H33.7248V3.81975H37.8904V0.751619H25.6857V3.81975H29.8707V14.4312Z" fill="#48508A"/>
<path d="M49.7794 14.7048C53.8282 14.7048 55.8136 12.6724 55.8136 10.2882C55.8136 5.24634 48.0859 6.80972 48.0859 4.7187C48.0859 4.03472 48.6699 3.48754 50.2855 3.48754C51.4729 3.48754 52.7576 3.8393 54.0617 4.54282L55.2491 1.67011C53.906 0.888415 52.0763 0.478027 50.305 0.478027C46.2562 0.478027 44.2707 2.47134 44.2707 4.91412C44.2707 9.99511 52.0179 8.41219 52.0179 10.5814C52.0179 11.2458 51.395 11.6953 49.7989 11.6953C48.2222 11.6953 46.5092 11.1481 45.3024 10.3469L44.0371 13.2C45.3218 14.099 47.5409 14.7048 49.7794 14.7048Z" fill="#48508A"/>
<path d="M67.7937 14.4312H71.8036L65.7693 0.751619H61.9736L55.9588 14.4312H59.8908L60.9614 11.7735H66.7231L67.7937 14.4312ZM62.0904 8.92028L63.8423 4.54282L65.5942 8.92028H62.0904Z" fill="#48508A"/>
<path d="M72.8962 14.4312H83.2517V11.3631H76.7503V0.751619H72.8962V14.4312Z" fill="#48508A"/>
<path d="M90.9311 14.7048C94.9604 14.7048 97.3351 12.4183 97.3351 8.33402V0.751619H93.5394V8.21676C93.5394 10.5618 92.5662 11.4999 90.97 11.4999C89.3544 11.4999 88.3811 10.5618 88.3811 8.21676V0.751619H84.527V8.33402C84.527 12.4183 86.9018 14.7048 90.9311 14.7048Z" fill="#48508A"/>
<path d="M99.9461 14.4312H106.389C110.905 14.4312 114 11.793 114 7.59141C114 3.38982 110.905 0.751619 106.389 0.751619H99.9461V14.4312ZM103.8 11.3435V3.8393H106.233C108.55 3.8393 110.107 5.2268 110.107 7.59141C110.107 9.95602 108.55 11.3435 106.233 11.3435H103.8Z" fill="#48508A"/>
</svg>
